<?xml version="1.0" standalone="no"?>
<!DOCTYPE svg PUBLIC "-//W3C//DTD SVG 20010904//EN"
 "http://www.w3.org/TR/2001/REC-SVG-20010904/DTD/svg10.dtd">
<svg version="1.0" xmlns="http://www.w3.org/2000/svg"
 width="184.000000pt" height="190.000000pt" viewBox="0 0 184.000000 190.000000"
 preserveAspectRatio="xMidYMid meet">

<g transform="translate(0.000000,190.000000) scale(0.100000,-0.100000)"
fill="#000000" stroke="none">
<path d="M738 1794 c-223 -40 -442 -183 -570 -373 -16 -24 -46 -78 -68 -120
-21 -42 -50 -87 -64 -100 -51 -47 -25 -151 40 -164 40 -7 90 10 108 38 18 28
21 77 6 105 -12 22 17 86 80 180 101 150 272 266 460 315 81 21 288 21 367 1
105 -28 219 -83 301 -144 28 -21 32 -30 32 -71 0 -25 6 -57 13 -71 18 -35 74
-70 114 -70 33 0 36 -3 68 -72 18 -40 38 -92 44 -115 l12 -43 60 0 c53 0 60 2
55 18 -3 9 -8 31 -12 47 -9 43 -64 175 -84 205 -13 19 -16 39 -13 80 3 43 0
62 -17 88 -24 39 -82 66 -123 58 -24 -5 -38 1 -77 34 -182 153 -471 222 -732
174z m876 -276 c40 -35 43 -78 11 -116 -43 -52 -120 -43 -145 17 -35 86 65
160 134 99z m-1469 -362 c32 -48 -32 -100 -75 -61 -24 22 -26 48 -4 69 23 24
61 20 79 -8z"/>
<path d="M793 1311 c-177 -51 -293 -209 -293 -401 0 -209 141 -372 359 -412
159 -30 345 72 432 235 28 52 33 73 36 151 3 60 -1 109 -10 144 -11 40 -12 62
-3 93 9 34 8 46 -9 77 -30 56 -80 85 -134 79 -28 -3 -52 0 -65 9 -33 21 -136
44 -196 43 -30 0 -83 -8 -117 -18z m451 -106 c42 -39 35 -105 -15 -130 -55
-29 -112 -11 -129 40 -29 88 75 154 144 90z m-231 -5 c35 -10 37 -13 37 -51 0
-23 8 -54 18 -71 19 -33 78 -68 115 -68 22 0 25 -6 31 -51 19 -138 -48 -261
-174 -322 -64 -31 -185 -30 -253 2 -136 63 -206 218 -163 360 49 166 213 251
389 201z"/>
<path d="M1693 775 c-45 -19 -69 -69 -54 -111 11 -29 9 -39 -18 -92 -113 -224
-302 -371 -544 -422 -212 -45 -411 -8 -593 111 l-74 49 0 47 c0 84 -43 132
-121 137 -42 3 -45 6 -72 57 -15 30 -37 82 -48 116 l-20 62 -55 7 c-30 3 -57
4 -60 1 -15 -15 68 -236 109 -291 11 -15 12 -28 5 -53 -13 -46 5 -95 48 -133
28 -24 43 -30 83 -30 40 0 56 -6 102 -41 79 -59 220 -124 329 -149 181 -43
397 -25 565 48 200 86 378 262 461 456 12 27 31 53 42 57 45 17 67 92 41 141
-9 17 -65 49 -86 48 -4 -1 -22 -7 -40 -15z m77 -55 c24 -24 24 -29 4 -58 -26
-37 -94 -20 -94 24 0 19 36 54 55 54 8 0 24 -9 35 -20z m-1456 -280 c31 -11
57 -59 49 -91 -17 -70 -101 -94 -148 -43 -34 37 -33 78 4 115 31 31 53 35 95
19z"/>
</g>
</svg>
